<?xml version="1.0" standalone="no"?>
<!DOCTYPE svg PUBLIC "-//W3C//DTD SVG 20010904//EN"
 "http://www.w3.org/TR/2001/REC-SVG-20010904/DTD/svg10.dtd">
<svg version="1.0" xmlns="http://www.w3.org/2000/svg"
 width="512.000000pt" height="512.000000pt" viewBox="0 0 512.000000 512.000000"
 preserveAspectRatio="xMidYMid meet">
<metadata>
Created by potrace 1.14, written by Peter Selinger 2001-2017
</metadata>
<g transform="translate(0.000000,512.000000) scale(0.100000,-0.100000)"
fill="#000000" stroke="none">
<path d="M2250 4919 c-162 -94 -313 -181 -335 -194 -22 -12 -80 -46 -130 -75
-49 -29 -103 -60 -120 -70 -16 -9 -118 -68 -225 -130 -107 -62 -208 -120 -225
-130 -16 -9 -102 -59 -190 -110 -88 -51 -176 -102 -195 -112 -19 -11 -64 -37
-100 -58 -36 -21 -81 -47 -100 -58 -19 -11 -168 -96 -330 -190 l-295 -171 -3
-620 -2 -620 182 106 c101 57 204 118 231 134 26 16 49 29 51 29 3 0 307 175
346 199 35 23 236 137 256 146 11 6 27 15 35 21 8 6 34 23 59 36 25 14 72 41
105 60 33 19 152 88 265 153 329 189 816 472 926 536 l101 59 224 -129 c123
-71 291 -167 373 -215 82 -47 151 -86 154 -86 2 0 16 -8 30 -18 15 -11 52 -33
82 -49 30 -17 93 -53 138 -79 46 -27 113 -65 148 -84 35 -19 69 -41 76 -48 6
-6 15 -12 19 -12 6 0 246 -137 614 -350 17 -9 107 -61 200 -115 94 -54 243
-140 332 -191 90 -52 165 -94 168 -94 3 0 4 277 3 616 l-3 616 -281 162 c-155
90 -287 166 -295 170 -8 4 -23 12 -34 19 -11 7 -94 55 -185 107 -91 52 -173
100 -182 105 -59 35 -252 145 -298 171 -30 17 -167 96 -305 176 -137 80 -270
156 -295 170 -25 14 -101 58 -170 98 -69 40 -141 82 -160 93 -19 10 -72 41
-118 68 -45 27 -87 49 -92 49 -6 0 -10 5 -10 11 0 5 -4 8 -9 4 -5 -3 -12 -1
-15 4 -8 13 -96 61 -110 61 -6 0 -144 -77 -306 -171z"/>
<path d="M2460 3333 c-41 -25 -93 -55 -115 -68 -22 -12 -123 -71 -225 -130
-102 -59 -203 -117 -225 -130 -22 -12 -206 -119 -410 -237 -203 -118 -390
-226 -415 -240 -25 -14 -101 -58 -170 -98 -69 -40 -138 -80 -155 -90 -16 -9
-190 -110 -385 -223 l-355 -206 -2 -383 -3 -383 122 -70 c67 -38 137 -79 157
-90 20 -11 58 -33 84 -48 l48 -29 142 83 c78 45 194 113 257 149 63 37 230
134 370 215 140 81 270 156 287 166 18 11 48 27 65 38 18 10 132 76 253 146
121 70 236 136 255 147 19 11 51 29 70 40 125 73 409 237 427 246 19 11 40 1
175 -76 84 -49 362 -210 618 -357 256 -148 593 -342 750 -433 157 -91 310
-178 340 -195 30 -17 83 -48 118 -69 34 -21 64 -38 67 -38 3 0 27 -14 54 -30
l49 -31 39 22 c41 23 313 183 351 206 l22 13 0 379 0 379 -162 95 c-90 51
-183 105 -208 119 -25 14 -157 91 -295 170 -301 174 -916 529 -1110 641 -77
44 -189 109 -248 144 -59 34 -110 63 -112 63 -3 0 -29 16 -59 35 -30 19 -58
35 -61 35 -3 0 -38 20 -78 44 -135 82 -219 126 -235 125 -10 0 -51 -21 -92
-46z"/>
<path d="M2495 1589 c-27 -16 -57 -34 -65 -39 -8 -5 -44 -26 -80 -46 -36 -21
-159 -92 -275 -160 -115 -67 -226 -131 -245 -141 -19 -11 -116 -67 -215 -125
-99 -58 -211 -122 -248 -144 -38 -21 -88 -50 -112 -64 -23 -14 -124 -72 -224
-130 -99 -58 -180 -109 -178 -113 2 -7 166 -102 917 -535 25 -14 67 -38 93
-52 l49 -27 86 50 c48 27 128 73 177 102 288 166 341 197 349 206 21 19 54 5
248 -107 110 -63 214 -123 231 -133 18 -10 71 -41 119 -69 l87 -50 183 105
c101 57 190 109 198 114 8 5 163 94 345 198 181 104 331 193 332 198 2 4 -153
98 -344 208 -191 110 -413 238 -493 284 -140 81 -297 172 -370 213 -19 11 -72
42 -118 69 -45 27 -84 49 -86 49 -2 0 -44 24 -93 54 -120 72 -200 116 -210
116 -4 0 -30 -14 -58 -31z"/>
</g>
</svg>
