<svg xmlns="http://www.w3.org/2000/svg" viewBox="0 0 799.98 154.82"><path d="M264.52,28.75V128.88H252.93l-5.33-9.21-18.52,10q-15.42,0-20.75-11.2a41.26,41.26,0,0,1-3.66-11.76,84.15,84.15,0,0,1-1-13.21c0-4.54,0-7.91.11-10.09s.33-4.72.67-7.6A37.61,37.61,0,0,1,206,68.52a33.87,33.87,0,0,1,2.88-6,16.11,16.11,0,0,1,4.5-5q6-4.09,15.59-4.1h18.25V28.75ZM234,111.4l13.21-6.77V69H234q-7.32,0-10.15,5.55T221,91.26q0,11.1,2.72,15.65T234,111.4ZM336.25,52.32v76.56H324.71l-5.32-9.21-18.53,10q-15.42,0-20.75-11.2a41.58,41.58,0,0,1-3.66-11.76,84.15,84.15,0,0,1-1-13.21c0-4.54,0-7.91.11-10.09s.3-4.72.67-7.6a38.38,38.38,0,0,1,1.55-7.27,35.61,35.61,0,0,1,2.83-6,16.63,16.63,0,0,1,4.55-5q6-4.09,15.59-4.1h18.19ZM305.8,111.4l13.14-6.77V69H305.8q-7.33,0-10.21,5.55t-2.83,16.75q0,11.1,2.72,15.65T305.8,111.4Zm81.71,2.83v14.65H376.74q-9.87,0-15-5.88a20.68,20.68,0,0,1-5.11-14V69.08h-7.32V55.87h7.32V41H374V55.87h12.21V69.08H374V108q0,6.27,6,6.27ZM443,94.48V87.6q0-9.87-2.82-15.08t-11.93-5.16q-14.64,0-14.65,19.69V94q0,21.13,14.65,21.14,9.42,0,12.37-7.05A34.62,34.62,0,0,0,443,94.48Zm17.31-4q0,24.63-9.32,33.06-7.81,7.15-22.74,7.16-19,0-25.69-11.15-6.25-10.26-6.26-29.07,0-17.53,6.26-27.52,6.89-11.2,25.19-11.2t25.46,9.76Q460.34,71.35,460.34,90.49ZM572.17,77.84v51h-17.3V81.61q0-7.1-1.67-9.87T547.43,69l-15.58,6.5v53.42H514.54V81.61q0-12.64-8.77-12.65l-14.25,6.5v53.42H474.21V52.82h12.93l4,9,20-9.81q10.38,0,15.7,10.09l24.74-10.09q10.38,0,15.53,7T572.17,77.84Zm71-25.52v76.56H631.59l-5.33-9.21-18.53,10q-15.42,0-20.74-11.2a41.27,41.27,0,0,1-3.67-11.76,85.39,85.39,0,0,1-1-13.21c0-4.54,0-7.91.11-10.09s.29-4.72.66-7.6a37.55,37.55,0,0,1,1.56-7.27,34.76,34.76,0,0,1,2.82-6,16.76,16.76,0,0,1,4.55-5q6-4.09,15.59-4.1h18.2ZM612.67,111.4l13.15-6.77V69H612.67q-7.32,0-10.21,5.55t-2.83,16.75q0,11.1,2.72,15.65C604.17,109.9,607.6,111.4,612.67,111.4Zm81.71,2.83v14.65H683.62q-9.89,0-15-5.88a20.67,20.67,0,0,1-5.1-14V69.08h-7.32V55.87h7.32V41h17.31V55.87h12.2V69.08h-12.2V108q0,6.27,6,6.27Zm23.19-90.42c4.17,0,6.88.65,8.1,1.94s1.88,4,1.88,8.1-.65,6.86-1.94,8.16-4,1.88-8.1,1.88-6.86-.66-8.15-2-1.89-4-1.89-8.09.63-6.76,1.89-8S713.39,23.81,717.57,23.81Zm8.54,31.84v73.23H708.8V55.65ZM784.25,101l15.75-.11a37.75,37.75,0,0,0-.28,3.82c-.11,1.89-.18,3.17-.22,3.83s-.15,1.71-.33,3.11a19.18,19.18,0,0,1-.61,3.11c-.22.66-.5,1.53-.83,2.6q-2.4,6.93-13,10.93a42.72,42.72,0,0,1-14.2,2.39,35.85,35.85,0,0,1-13.37-2.39,26,26,0,0,1-9.49-6.1q-7.82-8.27-7.82-31t7.82-30.95a25.82,25.82,0,0,1,9.49-6.16,35.68,35.68,0,0,1,13.31-2.38q14.37,0,21.8,7.21t7.49,20H784q0-5.88-2.94-8.76t-10.87-2.83q-7.94,0-10.48,4.93c-1.74,3.26-2.61,8.17-2.61,14.76V94q0,15.81,6.1,19.42a13.92,13.92,0,0,0,7.32,1.72,27,27,0,0,0,7.38-.83,7.06,7.06,0,0,0,4.16-3,13.2,13.2,0,0,0,1.67-4.22A41.84,41.84,0,0,0,784.25,101Z" transform="translate(-0.02 0.3)"/><path d="M77.92,105.52l52.44,30.27L97.85,154.52,78,143.08,58.24,154.52,25.68,135.79l52.24-30.27Z" transform="translate(-0.02 0.3)" style="fill:#81b29a;fill-rule:evenodd"/><polygon points="77.91 0 156.02 45 156.02 82.5 77.96 37.56 0 82.61 0 45.05 77.91 0" style="fill:#e07a5f;fill-rule:evenodd"/><polygon points="77.91 52.07 156.02 97.12 156.02 120.14 143.54 127.48 77.91 89.63 12.48 127.48 0 120.24 0 97.12 77.91 52.07 77.91 52.07" style="fill:#3d405b;fill-rule:evenodd"/></svg>